<svg xmlns="http://www.w3.org/2000/svg" xmlns:xlink="http://www.w3.org/1999/xlink" width="40" height="85" viewBox="0 0 40 85"><defs><path id="a" d="M6.924.057V4.98H.105V.057h6.819z"/><path id="c" d="M11.956 6H.023V.118h11.933V6z"/><path id="e" d="M0 7.922V.042h8.891v7.88H0z"/></defs><g fill="none" fill-rule="evenodd"><path fill="#fff" d="M18.015 41.107c4.364-7.653-1.937-22.904-3.993-30.144-.443-1.564 5.85-1.277 5.64 1.26-.583 6.922 4.011 15.75 4.003 23.051-.002 1.553 1.011 6.758-.477 7.407-2.465 1.075-5.582-.855-5.173-1.574m-3.983 18.992c4.065-6.822 3.007-12.25 2.9-16.777-.025-1.055 4.332.73 4.055 1.754-1.137 4.217-.006 9.632-1.278 15.366-.22.987-6.199.533-5.677-.343m1.864 16.181c.719-3.782.871-10.157-.838-12.724-.615-.922 3.855-2.267 3.797-1.105-.28 5.54 1.857 5.702.894 13.564-.14 1.13-4.065 1.379-3.853.265"/><g transform="rotate(90 -28.5 49.5)"><mask id="b" fill="#fff"><use xlink:href="#a"/></mask><path fill="#fff" d="M6.774 1.531c-.919 1.496-3.82 2.115-5.596 3.399-.643.462-1.33-2.374-.977-3.102C1.01.155 3.665-.142 5.466.163c.931.16 1.822.533 1.308 1.368" mask="url(#b)"/></g><path fill="#FFF" d="M11.208 38.303c4.62-7.043-1.11-20.73-3.18-27.334-.447-1.425 4.69-1.402 5.175.901 1.225 5.816 4.875 12.245 4.796 18.924-.016 1.418.136 8.295-1.418 8.9-2.58 1.006-5.806-.734-5.373-1.391m1.471 15.942c-.843-7.131-.583-9.14-.679-12.97-.022-.892 3.516.593 3.655 1.483.577 3.726.577 8.194-1.153 13.007-.289.803-1.719-.64-1.823-1.52"/><path fill="#FFF" d="M6.156 36.718c1.213-6.873-.175-17.7-2.108-23.543-.417-1.26 2.024-3.357 2.51-1.33 1.128 4.715 3.666 9.08 4.32 16.192.286 3.102.158 9.084-1.333 9.629-2.47.902-3.517-.23-3.389-.948m2.051 13.584C6.681 43.98 6.11 43.256 6 39.286c-.025-.925 3.999.611 4.123 1.536.578 4.248.005 8.132.87 13.04.153.878-2.571-2.67-2.786-3.56"/><path fill="#FFF" d="M.164 36.994c-.955-7.667 2.645-15.063 1.015-22.78-.183-.862 1.95-1.839 2.377-.692 2.013 5.39.835 9.89 1.947 14.77.27 1.183 1.166 8.786-.418 9.32-2.629.883-4.834.078-4.921-.618"/><g transform="rotate(90 -16.5 22.5)"><mask id="d" fill="#fff"><use xlink:href="#c"/></mask><path fill="#FFF" d="M8.05 3.159C3.65 5.06 3.553 5.903.254 6c-.766.023.56-3.393 1.278-3.706 2.802-1.222 4.86-.778 10.333-2.167.722-.185-3.075 2.713-3.815 3.032" mask="url(#d)"/></g><path fill="#FFF" d="M28.905 43.8c-.622 1.513-2.745 1.939-4.01 3.158-.457.437-1.078-2.63-.844-3.375.534-1.71 2.488-1.81 3.833-1.342.696.244 1.37.714 1.021 1.559m3.312-21.382c2.415-5.397-7.28-12.966-10.982-16.757-.8-.819.577-4.24 2.076-3.576C27.174 3.8 34.592 13.55 36.309 17.812c.364.908 1.37 4.456-.03 4.914-1.667.542-4.289.196-4.062-.308m2.86 14.314c1.617-5.59-.75-9.188-2.06-12.34-.308-.733 3.881-.35 3.923.423.168 3.181 2.593 6.752 3.06 11.028.08.735-5.132 1.607-4.924.89m4.29 8.252c-1.921-1.23-1.106-4.704-3.268-5.364-.779-.24 3.325-2.053 3.492-1.525.796 2.514.274 7.207-.223 6.889m-10.505-6.96c-.67 1.17-2.357 1.148-3.485 1.953-.407.29-.492-2.414-.218-3.003.628-1.355 2.142-1.09 3.116-.452.504.33.963.848.587 1.502"/><g transform="rotate(90 10 10)"><mask id="f" fill="#fff"><use xlink:href="#e"/></mask><path fill="#FFF" d="M8.646 7.922C5.978 7.784 3.29 6.486.778 6.794c-.427.053-1.1-3.874-.602-4.725C.908.812 3.34-.619 5.36.374c.43.208 1.568-.303 2.187 1.564C8.576 5.036 9.29 7.956 8.646 7.922" mask="url(#f)"/></g><path fill="#FFF" d="M8.182 9.987c-2.575-.37-.205-5.083.23-7.696.075-.445 2.898-1.885 3.37-1.02.611 1.118-.193 6.083-.793 7.646-.275.711-2.121 1.168-2.807 1.07m-3.387-.064c-2.867-.085-1.492-4.037-1.281-6.61.035-.438 3.388-1.967 3.481-.996.109 1.107-1.703 5.34-.92 7.217.29.697-.515.412-1.28.389"/><path fill="#FFF" d="M1.496 10.995c-.444-.08-.62-3.533-.403-6.008.037-.423 1.804-1.565 1.9-.627.112 1.068-1.16 4.109-.353 5.92 0 0-.725.788-1.144.715"/></g></svg>
