<svg xmlns="http://www.w3.org/2000/svg" xmlns:xlink="http://www.w3.org/1999/xlink" width="348" height="253" viewBox="0 0 348 253">
  <defs>
    <polygon id="a" points=".071 .916 144.73 .916 144.73 167.815 .071 167.815 .071 .916"/>
    <polygon id="c" points=".07 .916 144.729 .916 144.729 167.815 .07 167.815"/>
  </defs>
  <g fill="none" fill-rule="evenodd">
    <g transform="translate(9)">
      <mask id="b" fill="white">
        <use xlink:href="#a"/>
      </mask>
      <path fill="#FFFFFF" d="M74.8008474,163.875786 C59.9968543,193.294332 0.0709892696,48.2945587 0.0709892696,48.2945587 C0.0709892696,48.2945587 7.59039114,10.1527002 46.0065074,1.46134124 C72.5128086,-4.53527041 149.940259,40.6416893 144.452242,46.7448127 C125.607322,67.7063255 111.262028,80.6048987 98.347442,103.654042 C83.2867954,130.542934 85.6785877,142.264552 74.8008474,163.875786" mask="url(#b)"/>
    </g>
    <g transform="translate(166)">
      <mask id="d" fill="white">
        <use xlink:href="#c"/>
      </mask>
      <path fill="#FFFFFF" d="M69.9986963,163.875786 C84.8026894,193.294332 144.728554,48.2945587 144.728554,48.2945587 C144.728554,48.2945587 137.209153,10.1527002 98.7930362,1.46134124 C72.2867351,-4.53527041 -5.14071526,40.6416893 0.34730135,46.7448127 C19.1867614,67.7063255 33.5320546,80.6048987 46.4521016,103.654042 C61.5072875,130.542934 59.1209559,142.264552 69.9986963,163.875786" mask="url(#d)"/>
    </g>
    <path fill="#FFFFFF" d="M14.3736411 216.185965L14.3736411 214.601754 22.2533279 210 24.3747821 210 31.2153894 223.740602 40.3452189 214.919674C40.3452189 213.464787 40.0800371 210 40.0800371 210 40.0800371 210 50 213.238471 50 214.246115L34.126977 229.150627 42.7102073 245.154386C43.3650439 246.210526 44.7288359 246.738596 46.8015832 246.738596L46.8015832 248.403634 38.5430652 253 36.421611 253 26.8750673 233.914035 13.7296282 249.761529 11.8895915 250.117168 9.01588697 243.80188C8.60999651 243.80188 16.1162641 235.196491 16.1162641 235.196491 16.1162641 234.393609 23.487235 227.329323 23.487235 227.329323L19.2226792 218.675439C18.8709074 217.921053 18.4000745 217.344486 17.8210041 216.940351 17.2419337 216.536216 16.7223939 216.3099 16.2677966 216.261404 15.8131993 216.212907 15.1800101 216.185965 14.3736411 216.185965M4.83047657 156.785831L4.83047657 155.375102 10.6544414 152 12.5939672 153.251024 17.5990212 163.440213 28.8159452 152.798526 30.7069828 157.382064C30.7069828 157.382064 32 159.846847 32 160.741196L22.5448119 168.321867 30.2328765 182.556921C30.8255094 183.499181 30.6638823 185.809582 30.6638823 185.809582L21.537336 191 20.3251324 189.536036 21.537336 188.00819 16.042013 172.559378 3.9523024 183.962326 2.60540951 186.970106.0139875871 177.669943C-.346979708 177.669943 6.3982599 173.698608 6.3982599 173.698608 6.3982599 172.979934 12.9980351 166.698198 12.9980351 166.698198L9.17824683 159.00041C8.86038011 158.329648 8.44014952 157.813268 7.92294265 157.456593 7.40034821 157.099918 6.93701705 156.897625 6.52756162 156.849713 6.12349375 156.807125 5.55779873 156.785831 4.83047657 156.785831M306.776532 158.332956C307.10718 158.422902 307.527496 158.41232 308.043082 158.306501 308.558669 158.195392 309.046235 157.941428 309.500175 157.544609L314.908231 153.015582C314.908231 153.015582 311.825919 146.423096 312.055692 145.894004 312.055692 145.894004 309.320841 138.259207 309.601051 138.370316L313.383888 135 314.555166 135.724856 319.116988 149.61352 331.138004 139.671882 332.595096 140.238011 337 145.454857 336.523643 146.544787C335.094571 145.98924 333.996147 145.973367 333.250788 146.486587L322.770928 154.671639 329.495972 168.671413C329.204553 169.327487 321.431524 168.798395 321.431524 168.798395 321.431524 168.798395 322.602802 166.597372 323.017513 165.645007L319.223468 157.4335 310.598599 164.602696 309.130298 164.031276 305 158.909666 305.448336 157.877937C306.003152 158.094865 306.445884 158.24301 306.776532 158.332956M320.942697 117.651426C321.375696 117.598574 321.870552 117.376598 322.422111 116.985497 322.97367 116.58911 323.416979 116.018314 323.757192 115.283677L327.813984 106.790438C327.813984 106.790438 320.798364 99.8668879 320.798364 99.074115 320.798364 99.074115 313.633256 94.6980088 314.014707 94.6980088L316.767346 84.4448132 318.200368 87.7638889 331.046014 100.337266 336.886351 83.3032203 335.597662 81.6172566 336.886351 80 346.582443 85.7238201C346.582443 85.7238201 346.75255 88.2712635 346.128824 89.3124385L337.953385 105.004056 348 113.359882C348 114.348206 346.623681 117.070059 346.623681 117.070059L344.618481 122.11738 332.695536 110.389626 327.380984 121.620575 325.324238 123 319.133378 119.279253 319.133378 117.725418C319.906591 117.725418 320.509697 117.698992 320.942697 117.651426"/>
  </g>
</svg>
